<svg width="652" height="51" viewBox="0 0 652 51" fill="none" xmlns="http://www.w3.org/2000/svg">
<rect x="0.491211" y="1" width="651" height="49" rx="5.5" fill="white"/>
<rect x="0.491211" y="1" width="651" height="49" rx="5.5" stroke="#DADADA"/>
<path d="M21.6952 29.608C20.8632 29.608 20.1512 29.432 19.5592 29.08C18.9672 28.728 18.5112 28.228 18.1912 27.58C17.8792 26.932 17.7232 26.16 17.7232 25.264C17.7232 24.376 17.8792 23.608 18.1912 22.96C18.5112 22.312 18.9672 21.812 19.5592 21.46C20.1512 21.108 20.8632 20.932 21.6952 20.932C22.2792 20.932 22.8152 21.024 23.3032 21.208C23.7992 21.392 24.2192 21.66 24.5632 22.012L24.1792 22.816C23.8112 22.472 23.4272 22.224 23.0272 22.072C22.6352 21.912 22.1992 21.832 21.7192 21.832C20.7672 21.832 20.0392 22.132 19.5352 22.732C19.0312 23.332 18.7792 24.176 18.7792 25.264C18.7792 26.36 19.0312 27.208 19.5352 27.808C20.0392 28.408 20.7672 28.708 21.7192 28.708C22.1992 28.708 22.6352 28.632 23.0272 28.48C23.4272 28.32 23.8112 28.068 24.1792 27.724L24.5632 28.528C24.2192 28.872 23.7992 29.14 23.3032 29.332C22.8152 29.516 22.2792 29.608 21.6952 29.608ZM27.9796 29.608C27.4116 29.608 26.9196 29.484 26.5036 29.236C26.0876 28.988 25.7636 28.64 25.5316 28.192C25.3076 27.736 25.1956 27.2 25.1956 26.584C25.1956 25.968 25.3076 25.436 25.5316 24.988C25.7636 24.532 26.0876 24.18 26.5036 23.932C26.9196 23.684 27.4116 23.56 27.9796 23.56C28.5396 23.56 29.0276 23.684 29.4436 23.932C29.8676 24.18 30.1916 24.532 30.4156 24.988C30.6476 25.436 30.7636 25.968 30.7636 26.584C30.7636 27.2 30.6476 27.736 30.4156 28.192C30.1916 28.64 29.8676 28.988 29.4436 29.236C29.0276 29.484 28.5396 29.608 27.9796 29.608ZM27.9796 28.828C28.5236 28.828 28.9596 28.636 29.2876 28.252C29.6156 27.86 29.7796 27.304 29.7796 26.584C29.7796 25.856 29.6156 25.3 29.2876 24.916C28.9596 24.532 28.5236 24.34 27.9796 24.34C27.4276 24.34 26.9876 24.532 26.6596 24.916C26.3396 25.3 26.1796 25.856 26.1796 26.584C26.1796 27.304 26.3396 27.86 26.6596 28.252C26.9876 28.636 27.4276 28.828 27.9796 28.828ZM34.2875 29.608C32.8875 29.608 32.1875 28.836 32.1875 27.292V23.668H33.1595V27.28C33.1595 27.8 33.2635 28.184 33.4715 28.432C33.6875 28.68 34.0235 28.804 34.4795 28.804C34.9755 28.804 35.3795 28.64 35.6915 28.312C36.0035 27.976 36.1595 27.532 36.1595 26.98V23.668H37.1315V29.5H36.1835V28.516C35.9995 28.868 35.7395 29.14 35.4035 29.332C35.0755 29.516 34.7035 29.608 34.2875 29.608ZM38.9501 29.5V23.668H39.8981V24.664C40.0901 24.296 40.3621 24.02 40.7141 23.836C41.0661 23.652 41.4621 23.56 41.9021 23.56C43.2861 23.56 43.9781 24.328 43.9781 25.864V29.5H43.0061V25.924C43.0061 25.38 42.8981 24.984 42.6821 24.736C42.4741 24.48 42.1381 24.352 41.6741 24.352C41.1381 24.352 40.7101 24.52 40.3901 24.856C40.0781 25.184 39.9221 25.624 39.9221 26.176V29.5H38.9501ZM48.1104 29.608C47.4224 29.608 46.9064 29.428 46.5624 29.068C46.2184 28.7 46.0464 28.172 46.0464 27.484V24.424H44.9064V23.668H46.0464V21.88H47.0184V23.668H48.8664V24.424H47.0184V27.388C47.0184 27.844 47.1144 28.192 47.3064 28.432C47.4984 28.664 47.8104 28.78 48.2424 28.78C48.3704 28.78 48.4984 28.764 48.6264 28.732C48.7544 28.7 48.8704 28.668 48.9744 28.636L49.1424 29.38C49.0384 29.436 48.8864 29.488 48.6864 29.536C48.4864 29.584 48.2944 29.608 48.1104 29.608ZM49.9657 29.5V23.668H50.9137V24.712C51.2257 24.008 51.8657 23.62 52.8337 23.548L53.1817 23.512L53.2537 24.352L52.6417 24.424C52.0897 24.472 51.6697 24.648 51.3817 24.952C51.0937 25.248 50.9497 25.656 50.9497 26.176V29.5H49.9657ZM55.3018 31.66L56.2978 29.404L53.8378 23.668H54.8938L56.8258 28.396L58.7698 23.668H59.7898L56.3218 31.66H55.3018Z" fill="#030212"/>
<rect x="75.9912" y="9.5" width="49" height="32" rx="4" fill="#EFF0F1"/>
<path d="M89.8312 29.62C89.1672 29.62 88.5512 29.536 87.9832 29.368C87.4152 29.192 86.9352 28.956 86.5432 28.66L87.0112 27.448C87.4032 27.728 87.8312 27.944 88.2952 28.096C88.7672 28.248 89.2792 28.324 89.8312 28.324C90.4632 28.324 90.9232 28.22 91.2112 28.012C91.4992 27.796 91.6432 27.52 91.6432 27.184C91.6432 26.904 91.5392 26.684 91.3312 26.524C91.1312 26.364 90.7832 26.232 90.2872 26.128L88.9672 25.852C87.4632 25.532 86.7112 24.76 86.7112 23.536C86.7112 23.008 86.8512 22.548 87.1312 22.156C87.4112 21.764 87.7992 21.46 88.2952 21.244C88.7912 21.028 89.3632 20.92 90.0112 20.92C90.5872 20.92 91.1272 21.008 91.6312 21.184C92.1352 21.352 92.5552 21.592 92.8912 21.904L92.4232 23.056C91.7592 22.496 90.9512 22.216 89.9992 22.216C89.4472 22.216 89.0152 22.332 88.7032 22.564C88.3912 22.796 88.2352 23.1 88.2352 23.476C88.2352 23.764 88.3312 23.996 88.5232 24.172C88.7152 24.34 89.0432 24.472 89.5072 24.568L90.8152 24.844C91.6072 25.012 92.1952 25.276 92.5792 25.636C92.9712 25.996 93.1672 26.476 93.1672 27.076C93.1672 27.58 93.0312 28.024 92.7592 28.408C92.4872 28.792 92.0992 29.092 91.5952 29.308C91.0992 29.516 90.5112 29.62 89.8312 29.62ZM94.3415 31.66V23.632H95.8055V24.568C95.9735 24.248 96.2255 23.992 96.5615 23.8C96.9055 23.608 97.2935 23.512 97.7255 23.512C98.2375 23.512 98.6855 23.636 99.0695 23.884C99.4615 24.132 99.7655 24.484 99.9815 24.94C100.198 25.388 100.306 25.928 100.306 26.56C100.306 27.184 100.198 27.728 99.9815 28.192C99.7655 28.648 99.4655 29 99.0815 29.248C98.6975 29.496 98.2455 29.62 97.7255 29.62C97.3095 29.62 96.9335 29.532 96.5975 29.356C96.2695 29.172 96.0175 28.928 95.8415 28.624V31.66H94.3415ZM97.3055 28.48C97.7535 28.48 98.1135 28.32 98.3855 28C98.6575 27.672 98.7935 27.192 98.7935 26.56C98.7935 25.92 98.6575 25.444 98.3855 25.132C98.1135 24.812 97.7535 24.652 97.3055 24.652C96.8575 24.652 96.4975 24.812 96.2255 25.132C95.9535 25.444 95.8175 25.92 95.8175 26.56C95.8175 27.192 95.9535 27.672 96.2255 28C96.4975 28.32 96.8575 28.48 97.3055 28.48ZM103.469 29.62C103.045 29.62 102.665 29.54 102.329 29.38C102.001 29.212 101.741 28.988 101.549 28.708C101.365 28.428 101.273 28.112 101.273 27.76C101.273 27.328 101.385 26.988 101.609 26.74C101.833 26.484 102.197 26.3 102.701 26.188C103.205 26.076 103.881 26.02 104.729 26.02H105.149V25.768C105.149 25.368 105.061 25.08 104.885 24.904C104.709 24.728 104.413 24.64 103.997 24.64C103.669 24.64 103.333 24.692 102.989 24.796C102.645 24.892 102.297 25.044 101.945 25.252L101.513 24.232C101.721 24.088 101.965 23.964 102.245 23.86C102.533 23.748 102.833 23.664 103.145 23.608C103.465 23.544 103.765 23.512 104.045 23.512C104.901 23.512 105.537 23.712 105.953 24.112C106.369 24.504 106.577 25.116 106.577 25.948V29.5H105.173V28.564C105.037 28.892 104.821 29.152 104.525 29.344C104.229 29.528 103.877 29.62 103.469 29.62ZM103.781 28.588C104.173 28.588 104.497 28.452 104.753 28.18C105.017 27.908 105.149 27.564 105.149 27.148V26.884H104.741C103.989 26.884 103.465 26.944 103.169 27.064C102.881 27.176 102.737 27.384 102.737 27.688C102.737 27.952 102.829 28.168 103.013 28.336C103.197 28.504 103.453 28.588 103.781 28.588ZM108.099 29.5V23.632H109.563V24.544C109.763 24.208 110.031 23.952 110.367 23.776C110.711 23.6 111.095 23.512 111.519 23.512C112.903 23.512 113.595 24.316 113.595 25.924V29.5H112.095V25.996C112.095 25.54 112.007 25.208 111.831 25C111.663 24.792 111.399 24.688 111.039 24.688C110.599 24.688 110.247 24.828 109.983 25.108C109.727 25.38 109.599 25.744 109.599 26.2V29.5H108.099Z" fill="#030212"/>
<path d="M144.111 29.5V21.892H141.039V21.04H148.179V21.892H145.107V29.5H144.111ZM149.002 22.216V21.124H150.202V22.216H149.002ZM149.122 29.5V23.668H150.094V29.5H149.122ZM151.935 29.5V23.668H152.883V24.652C153.059 24.3 153.303 24.032 153.615 23.848C153.927 23.656 154.291 23.56 154.707 23.56C155.619 23.56 156.203 23.956 156.459 24.748C156.635 24.38 156.895 24.092 157.239 23.884C157.583 23.668 157.979 23.56 158.427 23.56C159.723 23.56 160.371 24.328 160.371 25.864V29.5H159.399V25.912C159.399 25.376 159.303 24.984 159.111 24.736C158.927 24.48 158.619 24.352 158.187 24.352C157.715 24.352 157.339 24.52 157.059 24.856C156.779 25.192 156.639 25.64 156.639 26.2V29.5H155.667V25.912C155.667 25.376 155.571 24.984 155.379 24.736C155.195 24.48 154.887 24.352 154.455 24.352C153.975 24.352 153.595 24.52 153.315 24.856C153.043 25.192 152.907 25.64 152.907 26.2V29.5H151.935ZM164.816 29.608C163.896 29.608 163.168 29.34 162.632 28.804C162.096 28.26 161.828 27.524 161.828 26.596C161.828 25.996 161.948 25.468 162.188 25.012C162.428 24.548 162.756 24.192 163.172 23.944C163.596 23.688 164.084 23.56 164.636 23.56C165.428 23.56 166.048 23.816 166.496 24.328C166.944 24.832 167.168 25.528 167.168 26.416V26.788H162.776C162.808 27.452 163 27.96 163.352 28.312C163.704 28.656 164.192 28.828 164.816 28.828C165.168 28.828 165.504 28.776 165.824 28.672C166.144 28.56 166.448 28.38 166.736 28.132L167.072 28.816C166.808 29.064 166.472 29.26 166.064 29.404C165.656 29.54 165.24 29.608 164.816 29.608ZM164.66 24.28C164.108 24.28 163.672 24.452 163.352 24.796C163.032 25.14 162.844 25.592 162.788 26.152H166.328C166.304 25.56 166.148 25.1 165.86 24.772C165.58 24.444 165.18 24.28 164.66 24.28ZM171.321 29.5V28.768L176.181 21.892H171.321V21.04H177.381V21.772L172.509 28.648H177.549V29.5H171.321ZM180.972 29.608C180.404 29.608 179.912 29.484 179.496 29.236C179.08 28.988 178.756 28.64 178.524 28.192C178.3 27.736 178.188 27.2 178.188 26.584C178.188 25.968 178.3 25.436 178.524 24.988C178.756 24.532 179.08 24.18 179.496 23.932C179.912 23.684 180.404 23.56 180.972 23.56C181.532 23.56 182.02 23.684 182.436 23.932C182.86 24.18 183.184 24.532 183.408 24.988C183.64 25.436 183.756 25.968 183.756 26.584C183.756 27.2 183.64 27.736 183.408 28.192C183.184 28.64 182.86 28.988 182.436 29.236C182.02 29.484 181.532 29.608 180.972 29.608ZM180.972 28.828C181.516 28.828 181.952 28.636 182.28 28.252C182.608 27.86 182.772 27.304 182.772 26.584C182.772 25.856 182.608 25.3 182.28 24.916C181.952 24.532 181.516 24.34 180.972 24.34C180.42 24.34 179.98 24.532 179.652 24.916C179.332 25.3 179.172 25.856 179.172 26.584C179.172 27.304 179.332 27.86 179.652 28.252C179.98 28.636 180.42 28.828 180.972 28.828ZM185.216 29.5V23.668H186.164V24.664C186.356 24.296 186.628 24.02 186.98 23.836C187.332 23.652 187.728 23.56 188.168 23.56C189.552 23.56 190.244 24.328 190.244 25.864V29.5H189.272V25.924C189.272 25.38 189.164 24.984 188.948 24.736C188.74 24.48 188.404 24.352 187.94 24.352C187.404 24.352 186.976 24.52 186.656 24.856C186.344 25.184 186.188 25.624 186.188 26.176V29.5H185.216ZM194.664 29.608C193.744 29.608 193.016 29.34 192.48 28.804C191.944 28.26 191.676 27.524 191.676 26.596C191.676 25.996 191.796 25.468 192.036 25.012C192.276 24.548 192.604 24.192 193.02 23.944C193.444 23.688 193.932 23.56 194.484 23.56C195.276 23.56 195.896 23.816 196.344 24.328C196.792 24.832 197.016 25.528 197.016 26.416V26.788H192.624C192.656 27.452 192.848 27.96 193.2 28.312C193.552 28.656 194.04 28.828 194.664 28.828C195.016 28.828 195.352 28.776 195.672 28.672C195.992 28.56 196.296 28.38 196.584 28.132L196.92 28.816C196.656 29.064 196.32 29.26 195.912 29.404C195.504 29.54 195.088 29.608 194.664 29.608ZM194.508 24.28C193.956 24.28 193.52 24.452 193.2 24.796C192.88 25.14 192.692 25.592 192.636 26.152H196.176C196.152 25.56 195.996 25.1 195.708 24.772C195.428 24.444 195.028 24.28 194.508 24.28Z" fill="#030212"/>
<rect x="213.991" y="8.5" width="47" height="34" rx="4" fill="#EFF0F1"/>
<path d="M228.983 29.62C228.047 29.62 227.255 29.444 226.607 29.092C225.967 28.74 225.479 28.24 225.143 27.592C224.807 26.944 224.639 26.176 224.639 25.288C224.639 24.392 224.811 23.62 225.155 22.972C225.499 22.316 225.995 21.812 226.643 21.46C227.291 21.1 228.067 20.92 228.971 20.92C229.563 20.92 230.119 21.008 230.639 21.184C231.159 21.352 231.591 21.588 231.935 21.892L231.419 23.092C231.043 22.796 230.659 22.584 230.267 22.456C229.875 22.328 229.443 22.264 228.971 22.264C228.075 22.264 227.395 22.524 226.931 23.044C226.475 23.564 226.247 24.312 226.247 25.288C226.247 26.272 226.483 27.02 226.955 27.532C227.427 28.044 228.127 28.3 229.055 28.3C229.319 28.3 229.587 28.28 229.859 28.24C230.139 28.192 230.415 28.124 230.687 28.036V26.068H228.743V24.928H231.971V28.996C231.579 29.188 231.115 29.34 230.579 29.452C230.043 29.564 229.511 29.62 228.983 29.62ZM233.775 29.5V21.04H235.059L238.059 26.572L241.047 21.04H242.307V29.5H240.915V23.8L238.491 28.216H237.591L235.167 23.824V29.5H233.775ZM246.209 29.5V22.324H243.305V21.04H250.649V22.324H247.745V29.5H246.209Z" fill="#030212"/>
</svg>
