<svg width="652" height="49" viewBox="0 0 652 49" fill="none" xmlns="http://www.w3.org/2000/svg">
<rect x="0.491211" y="1" width="651" height="47" rx="5.5" fill="white"/>
<rect x="0.491211" y="1" width="651" height="47" rx="5.5" stroke="#DADADA"/>
<path d="M18.0352 28.5V20.04H19.0192V27.636H23.3272V28.5H18.0352ZM26.2548 28.608C25.8548 28.608 25.4948 28.532 25.1748 28.38C24.8628 28.22 24.6148 28.004 24.4308 27.732C24.2468 27.46 24.1548 27.156 24.1548 26.82C24.1548 26.396 24.2628 26.06 24.4788 25.812C24.7028 25.564 25.0668 25.388 25.5708 25.284C26.0828 25.172 26.7788 25.116 27.6588 25.116H28.0428V24.744C28.0428 24.248 27.9388 23.892 27.7308 23.676C27.5308 23.452 27.2068 23.34 26.7588 23.34C26.4068 23.34 26.0668 23.392 25.7388 23.496C25.4108 23.592 25.0748 23.752 24.7308 23.976L24.3948 23.268C24.6988 23.052 25.0668 22.88 25.4988 22.752C25.9388 22.624 26.3588 22.56 26.7588 22.56C27.5108 22.56 28.0668 22.744 28.4268 23.112C28.7948 23.48 28.9788 24.052 28.9788 24.828V28.5H28.0668V27.492C27.9148 27.836 27.6788 28.108 27.3588 28.308C27.0468 28.508 26.6788 28.608 26.2548 28.608ZM26.4108 27.876C26.8908 27.876 27.2828 27.712 27.5868 27.384C27.8908 27.048 28.0428 26.624 28.0428 26.112V25.752H27.6708C27.0228 25.752 26.5108 25.784 26.1348 25.848C25.7668 25.904 25.5068 26.008 25.3548 26.16C25.2108 26.304 25.1388 26.504 25.1388 26.76C25.1388 27.088 25.2508 27.356 25.4748 27.564C25.7068 27.772 26.0188 27.876 26.4108 27.876ZM30.7821 28.5V22.668H31.7301V23.664C31.9221 23.296 32.1941 23.02 32.5461 22.836C32.8981 22.652 33.2941 22.56 33.7341 22.56C35.1181 22.56 35.8101 23.328 35.8101 24.864V28.5H34.8381V24.924C34.8381 24.38 34.7301 23.984 34.5141 23.736C34.3061 23.48 33.9701 23.352 33.5061 23.352C32.9701 23.352 32.5421 23.52 32.2221 23.856C31.9101 24.184 31.7541 24.624 31.7541 25.176V28.5H30.7821ZM40.1824 30.768C39.6784 30.768 39.2024 30.7 38.7544 30.564C38.3144 30.436 37.9224 30.24 37.5784 29.976L37.9024 29.268C38.2624 29.524 38.6184 29.708 38.9704 29.82C39.3304 29.932 39.7184 29.988 40.1344 29.988C41.2864 29.988 41.8624 29.396 41.8624 28.212V27.18C41.6944 27.548 41.4304 27.84 41.0704 28.056C40.7184 28.264 40.3144 28.368 39.8584 28.368C39.3224 28.368 38.8584 28.244 38.4664 27.996C38.0744 27.748 37.7704 27.408 37.5544 26.976C37.3464 26.536 37.2424 26.028 37.2424 25.452C37.2424 24.876 37.3464 24.372 37.5544 23.94C37.7704 23.5 38.0744 23.16 38.4664 22.92C38.8584 22.68 39.3224 22.56 39.8584 22.56C40.3144 22.56 40.7184 22.664 41.0704 22.872C41.4304 23.08 41.6944 23.364 41.8624 23.724V22.668H42.8104V28.08C42.8104 28.976 42.5864 29.648 42.1384 30.096C41.6984 30.544 41.0464 30.768 40.1824 30.768ZM40.0384 27.576C40.5984 27.576 41.0424 27.384 41.3704 27C41.6984 26.616 41.8624 26.1 41.8624 25.452C41.8624 24.804 41.6984 24.292 41.3704 23.916C41.0424 23.532 40.5984 23.34 40.0384 23.34C39.4864 23.34 39.0464 23.532 38.7184 23.916C38.3904 24.292 38.2264 24.804 38.2264 25.452C38.2264 26.1 38.3904 26.616 38.7184 27C39.0464 27.384 39.4864 27.576 40.0384 27.576ZM46.6977 28.608C45.2977 28.608 44.5977 27.836 44.5977 26.292V22.668H45.5697V26.28C45.5697 26.8 45.6737 27.184 45.8817 27.432C46.0977 27.68 46.4337 27.804 46.8897 27.804C47.3857 27.804 47.7897 27.64 48.1017 27.312C48.4137 26.976 48.5697 26.532 48.5697 25.98V22.668H49.5417V28.5H48.5937V27.516C48.4097 27.868 48.1497 28.14 47.8137 28.332C47.4857 28.516 47.1137 28.608 46.6977 28.608ZM53.1962 28.608C52.7962 28.608 52.4362 28.532 52.1162 28.38C51.8042 28.22 51.5562 28.004 51.3722 27.732C51.1882 27.46 51.0962 27.156 51.0962 26.82C51.0962 26.396 51.2042 26.06 51.4202 25.812C51.6442 25.564 52.0082 25.388 52.5122 25.284C53.0242 25.172 53.7202 25.116 54.6002 25.116H54.9842V24.744C54.9842 24.248 54.8802 23.892 54.6722 23.676C54.4722 23.452 54.1482 23.34 53.7002 23.34C53.3482 23.34 53.0082 23.392 52.6802 23.496C52.3522 23.592 52.0162 23.752 51.6722 23.976L51.3362 23.268C51.6402 23.052 52.0082 22.88 52.4402 22.752C52.8802 22.624 53.3002 22.56 53.7002 22.56C54.4522 22.56 55.0082 22.744 55.3682 23.112C55.7362 23.48 55.9202 24.052 55.9202 24.828V28.5H55.0082V27.492C54.8562 27.836 54.6202 28.108 54.3002 28.308C53.9882 28.508 53.6202 28.608 53.1962 28.608ZM53.3522 27.876C53.8322 27.876 54.2242 27.712 54.5282 27.384C54.8322 27.048 54.9842 26.624 54.9842 26.112V25.752H54.6122C53.9642 25.752 53.4522 25.784 53.0762 25.848C52.7082 25.904 52.4482 26.008 52.2962 26.16C52.1522 26.304 52.0802 26.504 52.0802 26.76C52.0802 27.088 52.1922 27.356 52.4162 27.564C52.6482 27.772 52.9602 27.876 53.3522 27.876ZM60.3035 30.768C59.7995 30.768 59.3235 30.7 58.8755 30.564C58.4355 30.436 58.0435 30.24 57.6995 29.976L58.0235 29.268C58.3835 29.524 58.7395 29.708 59.0915 29.82C59.4515 29.932 59.8395 29.988 60.2555 29.988C61.4075 29.988 61.9835 29.396 61.9835 28.212V27.18C61.8155 27.548 61.5515 27.84 61.1915 28.056C60.8395 28.264 60.4355 28.368 59.9795 28.368C59.4435 28.368 58.9795 28.244 58.5875 27.996C58.1955 27.748 57.8915 27.408 57.6755 26.976C57.4675 26.536 57.3635 26.028 57.3635 25.452C57.3635 24.876 57.4675 24.372 57.6755 23.94C57.8915 23.5 58.1955 23.16 58.5875 22.92C58.9795 22.68 59.4435 22.56 59.9795 22.56C60.4355 22.56 60.8395 22.664 61.1915 22.872C61.5515 23.08 61.8155 23.364 61.9835 23.724V22.668H62.9315V28.08C62.9315 28.976 62.7075 29.648 62.2595 30.096C61.8195 30.544 61.1675 30.768 60.3035 30.768ZM60.1595 27.576C60.7195 27.576 61.1635 27.384 61.4915 27C61.8195 26.616 61.9835 26.1 61.9835 25.452C61.9835 24.804 61.8195 24.292 61.4915 23.916C61.1635 23.532 60.7195 23.34 60.1595 23.34C59.6075 23.34 59.1675 23.532 58.8395 23.916C58.5115 24.292 58.3475 24.804 58.3475 25.452C58.3475 26.1 58.5115 26.616 58.8395 27C59.1675 27.384 59.6075 27.576 60.1595 27.576ZM67.3828 28.608C66.4628 28.608 65.7348 28.34 65.1988 27.804C64.6628 27.26 64.3948 26.524 64.3948 25.596C64.3948 24.996 64.5148 24.468 64.7548 24.012C64.9948 23.548 65.3228 23.192 65.7388 22.944C66.1628 22.688 66.6508 22.56 67.2028 22.56C67.9948 22.56 68.6148 22.816 69.0628 23.328C69.5108 23.832 69.7348 24.528 69.7348 25.416V25.788H65.3428C65.3748 26.452 65.5668 26.96 65.9188 27.312C66.2708 27.656 66.7588 27.828 67.3828 27.828C67.7348 27.828 68.0708 27.776 68.3908 27.672C68.7108 27.56 69.0148 27.38 69.3028 27.132L69.6388 27.816C69.3748 28.064 69.0388 28.26 68.6308 28.404C68.2228 28.54 67.8068 28.608 67.3828 28.608ZM67.2268 23.28C66.6748 23.28 66.2388 23.452 65.9188 23.796C65.5988 24.14 65.4108 24.592 65.3548 25.152H68.8948C68.8708 24.56 68.7148 24.1 68.4268 23.772C68.1468 23.444 67.7468 23.28 67.2268 23.28ZM73.1095 28.608C72.6535 28.608 72.2215 28.544 71.8135 28.416C71.4055 28.288 71.0695 28.108 70.8055 27.876L71.1175 27.192C71.4055 27.424 71.7215 27.596 72.0655 27.708C72.4175 27.812 72.7735 27.864 73.1335 27.864C73.5895 27.864 73.9335 27.78 74.1655 27.612C74.3975 27.444 74.5135 27.216 74.5135 26.928C74.5135 26.704 74.4375 26.528 74.2855 26.4C74.1335 26.264 73.8935 26.16 73.5655 26.088L72.4735 25.848C71.4815 25.632 70.9855 25.12 70.9855 24.312C70.9855 23.784 71.1935 23.36 71.6095 23.04C72.0335 22.72 72.5855 22.56 73.2655 22.56C73.6655 22.56 74.0455 22.624 74.4055 22.752C74.7735 22.872 75.0775 23.052 75.3175 23.292L74.9935 23.976C74.7615 23.76 74.4895 23.596 74.1775 23.484C73.8735 23.364 73.5695 23.304 73.2655 23.304C72.8175 23.304 72.4775 23.392 72.2455 23.568C72.0135 23.744 71.8975 23.976 71.8975 24.264C71.8975 24.712 72.1935 25 72.7855 25.128L73.8775 25.356C74.3895 25.468 74.7775 25.648 75.0415 25.896C75.3055 26.136 75.4375 26.464 75.4375 26.88C75.4375 27.416 75.2255 27.84 74.8015 28.152C74.3775 28.456 73.8135 28.608 73.1095 28.608Z" fill="#030212"/>
<rect x="92.9912" y="8.5" width="65" height="32" rx="4" fill="#EFF0F1"/>
<path d="M106.831 28.62C106.167 28.62 105.551 28.536 104.983 28.368C104.415 28.192 103.935 27.956 103.543 27.66L104.011 26.448C104.403 26.728 104.831 26.944 105.295 27.096C105.767 27.248 106.279 27.324 106.831 27.324C107.463 27.324 107.923 27.22 108.211 27.012C108.499 26.796 108.643 26.52 108.643 26.184C108.643 25.904 108.539 25.684 108.331 25.524C108.131 25.364 107.783 25.232 107.287 25.128L105.967 24.852C104.463 24.532 103.711 23.76 103.711 22.536C103.711 22.008 103.851 21.548 104.131 21.156C104.411 20.764 104.799 20.46 105.295 20.244C105.791 20.028 106.363 19.92 107.011 19.92C107.587 19.92 108.127 20.008 108.631 20.184C109.135 20.352 109.555 20.592 109.891 20.904L109.423 22.056C108.759 21.496 107.951 21.216 106.999 21.216C106.447 21.216 106.015 21.332 105.703 21.564C105.391 21.796 105.235 22.1 105.235 22.476C105.235 22.764 105.331 22.996 105.523 23.172C105.715 23.34 106.043 23.472 106.507 23.568L107.815 23.844C108.607 24.012 109.195 24.276 109.579 24.636C109.971 24.996 110.167 25.476 110.167 26.076C110.167 26.58 110.031 27.024 109.759 27.408C109.487 27.792 109.099 28.092 108.595 28.308C108.099 28.516 107.511 28.62 106.831 28.62ZM111.342 30.66V22.632H112.806V23.568C112.974 23.248 113.226 22.992 113.562 22.8C113.906 22.608 114.294 22.512 114.726 22.512C115.238 22.512 115.686 22.636 116.07 22.884C116.462 23.132 116.766 23.484 116.982 23.94C117.198 24.388 117.306 24.928 117.306 25.56C117.306 26.184 117.198 26.728 116.982 27.192C116.766 27.648 116.466 28 116.082 28.248C115.698 28.496 115.246 28.62 114.726 28.62C114.31 28.62 113.934 28.532 113.598 28.356C113.27 28.172 113.018 27.928 112.842 27.624V30.66H111.342ZM114.306 27.48C114.754 27.48 115.114 27.32 115.386 27C115.658 26.672 115.794 26.192 115.794 25.56C115.794 24.92 115.658 24.444 115.386 24.132C115.114 23.812 114.754 23.652 114.306 23.652C113.858 23.652 113.498 23.812 113.226 24.132C112.954 24.444 112.818 24.92 112.818 25.56C112.818 26.192 112.954 26.672 113.226 27C113.498 27.32 113.858 27.48 114.306 27.48ZM120.469 28.62C120.045 28.62 119.665 28.54 119.329 28.38C119.001 28.212 118.741 27.988 118.549 27.708C118.365 27.428 118.273 27.112 118.273 26.76C118.273 26.328 118.385 25.988 118.609 25.74C118.833 25.484 119.197 25.3 119.701 25.188C120.205 25.076 120.881 25.02 121.729 25.02H122.149V24.768C122.149 24.368 122.061 24.08 121.885 23.904C121.709 23.728 121.413 23.64 120.997 23.64C120.669 23.64 120.333 23.692 119.989 23.796C119.645 23.892 119.297 24.044 118.945 24.252L118.513 23.232C118.721 23.088 118.965 22.964 119.245 22.86C119.533 22.748 119.833 22.664 120.145 22.608C120.465 22.544 120.765 22.512 121.045 22.512C121.901 22.512 122.537 22.712 122.953 23.112C123.369 23.504 123.577 24.116 123.577 24.948V28.5H122.173V27.564C122.037 27.892 121.821 28.152 121.525 28.344C121.229 28.528 120.877 28.62 120.469 28.62ZM120.781 27.588C121.173 27.588 121.497 27.452 121.753 27.18C122.017 26.908 122.149 26.564 122.149 26.148V25.884H121.741C120.989 25.884 120.465 25.944 120.169 26.064C119.881 26.176 119.737 26.384 119.737 26.688C119.737 26.952 119.829 27.168 120.013 27.336C120.197 27.504 120.453 27.588 120.781 27.588ZM125.099 28.5V22.632H126.563V23.544C126.763 23.208 127.031 22.952 127.367 22.776C127.711 22.6 128.095 22.512 128.519 22.512C129.903 22.512 130.595 23.316 130.595 24.924V28.5H129.095V24.996C129.095 24.54 129.007 24.208 128.831 24C128.663 23.792 128.399 23.688 128.039 23.688C127.599 23.688 127.247 23.828 126.983 24.108C126.727 24.38 126.599 24.744 126.599 25.2V28.5H125.099ZM132.023 21.372V19.908H133.703V21.372H132.023ZM132.119 28.5V22.632H133.619V28.5H132.119ZM137.325 28.62C136.829 28.62 136.365 28.56 135.933 28.44C135.501 28.32 135.141 28.148 134.853 27.924L135.237 26.94C135.533 27.14 135.865 27.296 136.233 27.408C136.601 27.512 136.969 27.564 137.337 27.564C137.721 27.564 138.005 27.5 138.189 27.372C138.381 27.236 138.477 27.06 138.477 26.844C138.477 26.508 138.229 26.292 137.733 26.196L136.533 25.968C135.517 25.776 135.009 25.248 135.009 24.384C135.009 24 135.113 23.668 135.321 23.388C135.537 23.108 135.833 22.892 136.209 22.74C136.585 22.588 137.017 22.512 137.505 22.512C137.921 22.512 138.321 22.572 138.705 22.692C139.089 22.804 139.417 22.976 139.689 23.208L139.281 24.192C139.049 24 138.769 23.848 138.441 23.736C138.121 23.624 137.813 23.568 137.517 23.568C137.125 23.568 136.833 23.636 136.641 23.772C136.457 23.908 136.365 24.088 136.365 24.312C136.365 24.664 136.593 24.88 137.049 24.96L138.249 25.188C138.769 25.284 139.161 25.46 139.425 25.716C139.697 25.972 139.833 26.316 139.833 26.748C139.833 27.332 139.605 27.792 139.149 28.128C138.693 28.456 138.085 28.62 137.325 28.62ZM141.037 28.5V20.04H142.537V23.484C142.737 23.164 143.005 22.924 143.341 22.764C143.677 22.596 144.049 22.512 144.457 22.512C145.841 22.512 146.533 23.316 146.533 24.924V28.5H145.033V24.996C145.033 24.54 144.945 24.208 144.769 24C144.601 23.792 144.337 23.688 143.977 23.688C143.537 23.688 143.185 23.828 142.921 24.108C142.665 24.38 142.537 24.744 142.537 25.2V28.5H141.037Z" fill="#030212"/>
<rect x="173.991" y="8.5" width="62" height="32" rx="4" fill="#EFF0F1"/>
<path d="M184.915 28.5V20.04H190.543V21.264H186.391V23.592H190.279V24.816H186.391V27.276H190.543V28.5H184.915ZM191.931 28.5V22.632H193.395V23.544C193.595 23.208 193.863 22.952 194.199 22.776C194.543 22.6 194.927 22.512 195.351 22.512C196.735 22.512 197.427 23.316 197.427 24.924V28.5H195.927V24.996C195.927 24.54 195.839 24.208 195.663 24C195.495 23.792 195.231 23.688 194.871 23.688C194.431 23.688 194.079 23.828 193.815 24.108C193.559 24.38 193.431 24.744 193.431 25.2V28.5H191.931ZM201.687 30.78C201.143 30.78 200.631 30.716 200.151 30.588C199.679 30.468 199.263 30.28 198.903 30.024L199.335 28.98C199.671 29.204 200.031 29.368 200.415 29.472C200.799 29.584 201.183 29.64 201.567 29.64C202.639 29.64 203.175 29.124 203.175 28.092V27.288C203.007 27.616 202.747 27.876 202.395 28.068C202.051 28.26 201.667 28.356 201.243 28.356C200.715 28.356 200.255 28.236 199.863 27.996C199.471 27.748 199.167 27.404 198.951 26.964C198.735 26.524 198.627 26.012 198.627 25.428C198.627 24.844 198.735 24.336 198.951 23.904C199.167 23.464 199.471 23.124 199.863 22.884C200.255 22.636 200.715 22.512 201.243 22.512C201.683 22.512 202.075 22.612 202.419 22.812C202.763 23.004 203.015 23.264 203.175 23.592V22.632H204.639V27.912C204.639 28.864 204.387 29.58 203.883 30.06C203.379 30.54 202.647 30.78 201.687 30.78ZM201.651 27.216C202.115 27.216 202.483 27.056 202.755 26.736C203.027 26.416 203.163 25.98 203.163 25.428C203.163 24.876 203.027 24.444 202.755 24.132C202.483 23.812 202.115 23.652 201.651 23.652C201.187 23.652 200.819 23.812 200.547 24.132C200.275 24.444 200.139 24.876 200.139 25.428C200.139 25.98 200.275 26.416 200.547 26.736C200.819 27.056 201.187 27.216 201.651 27.216ZM208.233 28.62C207.537 28.62 207.021 28.432 206.685 28.056C206.357 27.672 206.193 27.112 206.193 26.376V20.04H207.693V26.304C207.693 27.024 207.997 27.384 208.605 27.384C208.693 27.384 208.781 27.38 208.869 27.372C208.957 27.364 209.041 27.348 209.121 27.324L209.097 28.512C208.809 28.584 208.521 28.62 208.233 28.62ZM209.929 21.372V19.908H211.609V21.372H209.929ZM210.025 28.5V22.632H211.525V28.5H210.025ZM215.232 28.62C214.736 28.62 214.272 28.56 213.84 28.44C213.408 28.32 213.048 28.148 212.76 27.924L213.144 26.94C213.44 27.14 213.772 27.296 214.14 27.408C214.508 27.512 214.876 27.564 215.244 27.564C215.628 27.564 215.912 27.5 216.096 27.372C216.288 27.236 216.384 27.06 216.384 26.844C216.384 26.508 216.136 26.292 215.64 26.196L214.44 25.968C213.424 25.776 212.916 25.248 212.916 24.384C212.916 24 213.02 23.668 213.228 23.388C213.444 23.108 213.74 22.892 214.116 22.74C214.492 22.588 214.924 22.512 215.412 22.512C215.828 22.512 216.228 22.572 216.612 22.692C216.996 22.804 217.324 22.976 217.596 23.208L217.188 24.192C216.956 24 216.676 23.848 216.348 23.736C216.028 23.624 215.72 23.568 215.424 23.568C215.032 23.568 214.74 23.636 214.548 23.772C214.364 23.908 214.272 24.088 214.272 24.312C214.272 24.664 214.5 24.88 214.956 24.96L216.156 25.188C216.676 25.284 217.068 25.46 217.332 25.716C217.604 25.972 217.74 26.316 217.74 26.748C217.74 27.332 217.512 27.792 217.056 28.128C216.6 28.456 215.992 28.62 215.232 28.62ZM218.943 28.5V20.04H220.443V23.484C220.643 23.164 220.911 22.924 221.247 22.764C221.583 22.596 221.955 22.512 222.363 22.512C223.747 22.512 224.439 23.316 224.439 24.924V28.5H222.939V24.996C222.939 24.54 222.851 24.208 222.675 24C222.507 23.792 222.243 23.688 221.883 23.688C221.443 23.688 221.091 23.828 220.827 24.108C220.571 24.38 220.443 24.744 220.443 25.2V28.5H218.943Z" fill="#030212"/>
<rect x="251.991" y="8.5" width="58" height="32" rx="4" fill="#EFF0F1"/>
<path d="M262.915 28.5V20.04H268.447V21.264H264.451V23.652H268.195V24.876H264.451V28.5H262.915ZM269.392 28.5V22.632H270.856V23.664C271.144 22.968 271.76 22.584 272.704 22.512L273.16 22.476L273.256 23.748L272.392 23.832C271.408 23.928 270.916 24.432 270.916 25.344V28.5H269.392ZM276.89 28.62C276.226 28.62 275.654 28.496 275.174 28.248C274.694 28 274.322 27.648 274.058 27.192C273.802 26.736 273.674 26.196 273.674 25.572C273.674 24.964 273.798 24.432 274.046 23.976C274.302 23.52 274.65 23.164 275.09 22.908C275.538 22.644 276.046 22.512 276.614 22.512C277.446 22.512 278.102 22.776 278.582 23.304C279.07 23.832 279.314 24.552 279.314 25.464V25.908H275.114C275.226 26.956 275.826 27.48 276.914 27.48C277.242 27.48 277.57 27.432 277.898 27.336C278.226 27.232 278.526 27.072 278.798 26.856L279.218 27.864C278.938 28.096 278.586 28.28 278.162 28.416C277.738 28.552 277.314 28.62 276.89 28.62ZM276.674 23.532C276.234 23.532 275.878 23.668 275.606 23.94C275.334 24.212 275.17 24.58 275.114 25.044H278.066C278.034 24.556 277.898 24.184 277.658 23.928C277.426 23.664 277.098 23.532 276.674 23.532ZM280.502 28.5V22.632H281.966V23.544C282.166 23.208 282.434 22.952 282.77 22.776C283.114 22.6 283.498 22.512 283.922 22.512C285.306 22.512 285.998 23.316 285.998 24.924V28.5H284.498V24.996C284.498 24.54 284.41 24.208 284.234 24C284.066 23.792 283.802 23.688 283.442 23.688C283.002 23.688 282.65 23.828 282.386 24.108C282.13 24.38 282.002 24.744 282.002 25.2V28.5H280.502ZM290.233 28.62C289.617 28.62 289.081 28.496 288.625 28.248C288.169 27.992 287.817 27.632 287.569 27.168C287.321 26.704 287.197 26.16 287.197 25.536C287.197 24.912 287.321 24.376 287.569 23.928C287.817 23.472 288.169 23.124 288.625 22.884C289.081 22.636 289.617 22.512 290.233 22.512C290.609 22.512 290.981 22.572 291.349 22.692C291.717 22.812 292.021 22.98 292.261 23.196L291.817 24.24C291.609 24.056 291.373 23.916 291.109 23.82C290.853 23.724 290.605 23.676 290.365 23.676C289.845 23.676 289.441 23.84 289.153 24.168C288.873 24.488 288.733 24.948 288.733 25.548C288.733 26.14 288.873 26.608 289.153 26.952C289.441 27.288 289.845 27.456 290.365 27.456C290.597 27.456 290.845 27.408 291.109 27.312C291.373 27.216 291.609 27.072 291.817 26.88L292.261 27.936C292.021 28.144 291.713 28.312 291.337 28.44C290.969 28.56 290.601 28.62 290.233 28.62ZM293.181 28.5V20.04H294.681V23.484C294.881 23.164 295.149 22.924 295.485 22.764C295.821 22.596 296.193 22.512 296.601 22.512C297.985 22.512 298.677 23.316 298.677 24.924V28.5H297.177V24.996C297.177 24.54 297.089 24.208 296.913 24C296.745 23.792 296.481 23.688 296.121 23.688C295.681 23.688 295.329 23.828 295.065 24.108C294.809 24.38 294.681 24.744 294.681 25.2V28.5H293.181Z" fill="#030212"/>
</svg>
