<svg width="71" height="32" viewBox="0 0 71 32" fill="none" xmlns="http://www.w3.org/2000/svg">
<path d="M65.1967 31.974C65.1967 31.8824 65.1967 31.7976 65.1967 31.7129C65.1967 27.3007 65.1993 22.8886 65.1948 18.4768C65.1938 17.4909 65.1843 16.5037 64.9759 15.5329C64.8502 14.9481 64.6532 14.3919 64.2727 13.9191C63.7933 13.3235 63.1336 13.0375 62.4121 12.8739C61.5614 12.6809 60.6953 12.6639 59.8275 12.6685C59.1276 12.6721 58.4277 12.6727 57.7278 12.6717C57.003 12.6711 56.5645 13.1036 56.5606 13.8399C56.556 14.6926 56.5593 15.5456 56.5593 16.3987C56.5593 21.5362 56.5593 26.6735 56.559 31.811C56.559 31.8631 56.5544 31.8428 56.5514 31.9046C54.703 31.9046 52.867 31.9046 51.014 31.9046C51.014 29.0252 51.014 26.2213 51.014 23.3454C49.9882 26.5148 48.0835 28.9623 45.1298 30.5379C42.1727 32.115 39.0446 32.3954 35.8536 31.4799C32.6394 30.5578 30.2622 28.5222 28.6359 25.5894C28.3748 25.9602 28.1284 26.3279 27.8644 26.6823C26.7892 28.1253 25.5615 29.4051 23.9804 30.3091C21.934 31.4792 19.7331 32.011 17.3798 31.9524C14.4532 31.8794 11.8928 30.8831 9.70605 28.9384C8.71688 28.0586 7.93059 27.0171 7.27518 25.8682C6.85799 25.1366 6.54812 24.364 6.28438 23.5689C6.26606 23.5139 6.24544 23.4596 6.18491 23.4079C6.18491 26.233 6.18491 29.0582 6.18491 31.9154C4.3499 31.9154 2.54762 31.9154 0.723732 31.9154C0.721442 31.8739 0.714898 31.8104 0.714898 31.7469C0.714243 24.3228 0.714243 16.8983 0.71457 9.4742C0.71457 9.38095 0.716861 9.28769 0.722096 9.19444C0.760707 8.48537 1.17561 8.11987 1.88566 8.16175C3.7439 8.27137 4.97161 9.23567 5.63847 10.9437C6.10409 12.1367 6.19604 13.3896 6.19113 14.6553C6.18851 15.3536 6.1908 16.0518 6.21338 16.7586C6.27817 16.5567 6.3423 16.3548 6.40741 16.1533C6.74248 15.114 7.2261 14.1439 7.82654 13.2368C8.44595 12.3013 9.18185 11.464 10.0526 10.7458C11.0924 9.88845 12.2475 9.2373 13.4961 8.74223C14.3898 8.38786 15.3154 8.16928 16.2722 8.0865C19.4639 7.80967 22.4114 8.46966 25.0301 10.3806C25.1214 10.4473 25.21 10.518 25.2984 10.5887C25.7009 10.911 25.7768 11.2811 25.5029 11.7307C25.247 12.1511 24.9666 12.5569 24.6966 12.9688C24.4123 13.403 24.1296 13.8389 23.8423 14.2715C23.4784 14.8192 23.019 14.9069 22.4542 14.5542C22.0541 14.3042 21.6591 14.0398 21.2373 13.8307C18.8745 12.659 15.5877 12.7512 13.3345 15.0077C12.2059 16.1379 11.5381 17.5037 11.3559 19.0956C11.2109 20.3615 11.3248 21.6014 11.8526 22.7721C12.8234 24.9245 14.4546 26.309 16.7833 26.7586C18.5604 27.1015 20.2465 26.7442 21.8257 25.8482C23.4542 24.9245 24.6305 23.5866 25.5163 21.9619C26.5045 20.1498 27.2577 18.2428 27.8804 16.2779C28.4445 14.4979 29.4006 12.9463 30.6994 11.6024C31.6633 10.6047 32.801 9.8505 34.0143 9.19902C34.3471 9.02036 35.9619 8.18597 38.8005 8.03447C40.2147 7.9916 41.6086 8.13361 42.9649 8.55637C44.7806 9.12245 46.3797 10.0593 47.752 11.3776C49.2736 12.8393 50.32 14.5905 50.9237 16.6091C50.9388 16.6601 50.9571 16.7102 50.9748 16.7602C50.9761 16.7638 50.9869 16.7638 51.0071 16.7691C51.0071 16.0679 51.0071 15.3699 51.0071 14.672C51.0071 13.6458 50.9937 12.6194 51.0111 11.5936C51.0287 10.5514 51.3317 9.61 52.1203 8.88162C52.7649 8.28609 53.562 8.05312 54.4147 8.04461C56.3208 8.02531 58.2271 8.03349 60.1331 8.03872C61.3657 8.04232 62.5987 8.0505 63.8309 8.07602C64.4978 8.08977 65.1633 8.16175 65.7991 8.37804C66.5815 8.64439 67.2356 9.12703 67.8455 9.66922C68.6838 10.4143 69.2924 11.3269 69.782 12.3308C70.1874 13.1625 70.4118 14.0395 70.5745 14.9445C70.8467 16.4589 70.7485 17.985 70.7531 19.5069C70.7655 23.5722 70.7574 27.6378 70.7574 31.7034C70.7574 31.7888 70.7574 31.8745 70.7574 31.9743C68.8998 31.974 67.0589 31.974 65.1967 31.974ZM32.7788 20.0599C32.7785 22.5123 33.9253 24.0973 34.939 25.0299C36.0666 26.0672 37.4016 26.6231 38.9363 26.7275C40.8586 26.8584 42.5189 26.2556 43.8697 24.9095C45.6873 23.0984 46.2632 20.8655 45.6893 18.4061C45.0427 15.6346 43.2702 13.8788 40.4477 13.3523C38.3512 12.9613 36.4648 13.5362 34.9073 15.0182C33.4758 16.381 32.8213 18.0871 32.7788 20.0599Z" fill="#030212"/>
<path d="M3.46119 1.31685e-05C5.20197 -0.00456781 6.65152 1.18649 6.89235 2.89879C7.08082 4.23872 6.52685 5.29202 5.42251 6.04559C3.83454 7.12867 1.23975 6.74877 0.258765 4.56954C-0.340688 3.23844 0.130171 1.59714 1.37325 0.677998C1.99757 0.216628 2.65789 0.00197644 3.46119 1.31685e-05Z" fill="#E32320"/>
</svg>
