<svg width="124" height="25" viewBox="0 0 124 25" fill="none" xmlns="http://www.w3.org/2000/svg">
<path d="M11.2508 5.00639C11.5068 4.3312 12.4755 4.3312 12.7323 5.00639L14.3883 9.59352C14.5043 9.89752 14.7995 10.0999 15.1291 10.0999H19.1986C19.9506 10.0999 20.2786 11.0359 19.6874 11.4943L16.7915 14.0999C16.6617 14.1996 16.5669 14.3378 16.5207 14.4948C16.4744 14.6517 16.479 14.8193 16.5339 14.9734L17.5915 19.4558C17.8491 20.1758 17.0155 20.7942 16.3851 20.351L12.4515 17.855C12.3168 17.7603 12.1562 17.7095 11.9915 17.7095C11.8269 17.7095 11.6663 17.7603 11.5315 17.855L7.59801 20.351C6.96842 20.7942 6.13403 20.175 6.39163 19.4558L7.44921 14.9734C7.50407 14.8193 7.5087 14.6517 7.46242 14.4948C7.41614 14.3378 7.32134 14.1996 7.19161 14.0999L4.29566 11.4943C3.70367 11.0359 4.03326 10.0999 4.78365 10.0999H8.85319C9.01342 10.1004 9.17004 10.0523 9.30232 9.9619C9.4346 9.87147 9.5363 9.74301 9.59398 9.59352L11.25 5.00639H11.2508Z" fill="#E32320" stroke="#E32320" stroke-width="1.5" stroke-linecap="round" stroke-linejoin="round"/>
<path d="M36.2508 5.00639C36.5068 4.3312 37.4755 4.3312 37.7323 5.00639L39.3883 9.59352C39.5043 9.89752 39.7995 10.0999 40.1291 10.0999H44.1986C44.9506 10.0999 45.2786 11.0359 44.6874 11.4943L41.7915 14.0999C41.6617 14.1996 41.5669 14.3378 41.5207 14.4948C41.4744 14.6517 41.479 14.8193 41.5339 14.9734L42.5915 19.4558C42.8491 20.1758 42.0155 20.7942 41.3851 20.351L37.4515 17.855C37.3168 17.7603 37.1562 17.7095 36.9915 17.7095C36.8269 17.7095 36.6663 17.7603 36.5315 17.855L32.598 20.351C31.9684 20.7942 31.134 20.175 31.3916 19.4558L32.4492 14.9734C32.5041 14.8193 32.5087 14.6517 32.4624 14.4948C32.4161 14.3378 32.3213 14.1996 32.1916 14.0999L29.2957 11.4943C28.7037 11.0359 29.0333 10.0999 29.7837 10.0999H33.8532C34.0134 10.1004 34.17 10.0523 34.3023 9.9619C34.4346 9.87147 34.5363 9.74301 34.594 9.59352L36.25 5.00639H36.2508Z" fill="#E32320" stroke="#E32320" stroke-width="1.5" stroke-linecap="round" stroke-linejoin="round"/>
<path d="M61.2508 5.00639C61.5068 4.3312 62.4755 4.3312 62.7323 5.00639L64.3883 9.59352C64.5043 9.89752 64.7995 10.0999 65.1291 10.0999H69.1986C69.9506 10.0999 70.2786 11.0359 69.6874 11.4943L66.7915 14.0999C66.6617 14.1996 66.5669 14.3378 66.5207 14.4948C66.4744 14.6517 66.479 14.8193 66.5339 14.9734L67.5915 19.4558C67.8491 20.1758 67.0155 20.7942 66.3851 20.351L62.4515 17.855C62.3168 17.7603 62.1562 17.7095 61.9915 17.7095C61.8269 17.7095 61.6663 17.7603 61.5315 17.855L57.598 20.351C56.9684 20.7942 56.134 20.175 56.3916 19.4558L57.4492 14.9734C57.5041 14.8193 57.5087 14.6517 57.4624 14.4948C57.4161 14.3378 57.3213 14.1996 57.1916 14.0999L54.2957 11.4943C53.7037 11.0359 54.0333 10.0999 54.7837 10.0999H58.8532C59.0134 10.1004 59.17 10.0523 59.3023 9.9619C59.4346 9.87147 59.5363 9.74301 59.594 9.59352L61.25 5.00639H61.2508Z" fill="#E32320" stroke="#E32320" stroke-width="1.5" stroke-linecap="round" stroke-linejoin="round"/>
<path d="M86.2508 5.00639C86.5068 4.3312 87.4755 4.3312 87.7323 5.00639L89.3883 9.59352C89.5043 9.89752 89.7995 10.0999 90.1291 10.0999H94.1986C94.9506 10.0999 95.2786 11.0359 94.6874 11.4943L91.7915 14.0999C91.6617 14.1996 91.5669 14.3378 91.5207 14.4948C91.4744 14.6517 91.479 14.8193 91.5339 14.9734L92.5915 19.4558C92.8491 20.1758 92.0155 20.7942 91.3851 20.351L87.4515 17.855C87.3168 17.7603 87.1562 17.7095 86.9915 17.7095C86.8269 17.7095 86.6663 17.7603 86.5315 17.855L82.598 20.351C81.9684 20.7942 81.134 20.175 81.3916 19.4558L82.4492 14.9734C82.5041 14.8193 82.5087 14.6517 82.4624 14.4948C82.4161 14.3378 82.3213 14.1996 82.1916 14.0999L79.2957 11.4943C78.7037 11.0359 79.0333 10.0999 79.7837 10.0999H83.8532C84.0134 10.1004 84.17 10.0523 84.3023 9.9619C84.4346 9.87147 84.5363 9.74301 84.594 9.59352L86.25 5.00639H86.2508Z" fill="#E32320" stroke="#E32320" stroke-width="1.5" stroke-linecap="round" stroke-linejoin="round"/>
<path d="M111.251 5.00639C111.507 4.3312 112.476 4.3312 112.732 5.00639L114.388 9.59352C114.504 9.89752 114.8 10.0999 115.129 10.0999H119.199C119.951 10.0999 120.279 11.0359 119.687 11.4943L116.791 14.0999C116.662 14.1996 116.567 14.3378 116.521 14.4948C116.474 14.6517 116.479 14.8193 116.534 14.9734L117.591 19.4558C117.849 20.1758 117.015 20.7942 116.385 20.351L112.452 17.855C112.317 17.7603 112.156 17.7095 111.992 17.7095C111.827 17.7095 111.666 17.7603 111.532 17.855L107.598 20.351C106.968 20.7942 106.134 20.175 106.392 19.4558L107.449 14.9734C107.504 14.8193 107.509 14.6517 107.462 14.4948C107.416 14.3378 107.321 14.1996 107.192 14.0999L104.296 11.4943C103.704 11.0359 104.033 10.0999 104.784 10.0999H108.853C109.013 10.1004 109.17 10.0523 109.302 9.9619C109.435 9.87147 109.536 9.74301 109.594 9.59352L111.25 5.00639H111.251Z" stroke="#E32320" stroke-width="1.2" stroke-linecap="round" stroke-linejoin="round"/>
</svg>
