<svg width="140" height="23" viewBox="0 0 140 23" fill="none" xmlns="http://www.w3.org/2000/svg">
<path d="M7.25121 19.5V17.26H0.991211V14.72L5.53121 5.1H8.65121L4.11121 14.72H7.25121V11.12H10.0112V14.72H11.2912V17.26H10.0112V19.5H7.25121ZM13.7453 19.5V16.78H16.4653V19.5H13.7453ZM19.3115 19.48V17.12L25.3515 11.76C25.8049 11.36 26.1249 10.9833 26.3115 10.63C26.4982 10.2767 26.5915 9.94667 26.5915 9.64C26.5915 9.2 26.5015 8.81 26.3215 8.47C26.1415 8.12333 25.8882 7.85333 25.5615 7.66C25.2349 7.46 24.8515 7.36 24.4115 7.36C23.9515 7.36 23.5449 7.46667 23.1915 7.68C22.8449 7.88667 22.5749 8.16333 22.3815 8.51C22.1882 8.85 22.0982 9.22 22.1115 9.62H19.3115C19.3115 8.63333 19.5282 7.78 19.9615 7.06C20.3949 6.34 20.9982 5.78333 21.7715 5.39C22.5449 4.99667 23.4449 4.8 24.4715 4.8C25.4115 4.8 26.2515 5.00667 26.9915 5.42C27.7382 5.82667 28.3249 6.39667 28.7515 7.13C29.1782 7.86333 29.3915 8.71333 29.3915 9.68C29.3915 10.3933 29.2915 10.9867 29.0915 11.46C28.8915 11.9267 28.5949 12.36 28.2015 12.76C27.8082 13.1533 27.3249 13.6 26.7515 14.1L22.8515 17.52L22.6315 16.92H29.3915V19.48H19.3115Z" fill="#030212"/>
<path d="M49 21.5H122" stroke="#030212"/>
<path d="M37.0272 17.494L35.7112 17.102L39.3372 5.86L40.6532 6.252L37.0272 17.494ZM49.4528 16.5V15.016H51.6788V8.674L49.9568 9.71L49.2568 8.394L52.1968 6.63H53.4708V15.016H55.5568V16.5H49.4528ZM57.4413 16.5V15.17L60.6333 11.768C61.0626 11.3013 61.3706 10.8907 61.5573 10.536C61.744 10.172 61.8373 9.80333 61.8373 9.43C61.8373 8.478 61.2633 8.002 60.1153 8.002C59.2193 8.002 58.3933 8.338 57.6373 9.01L57.0353 7.666C57.4273 7.31133 57.9173 7.02667 58.5053 6.812C59.0933 6.59733 59.7046 6.49 60.3393 6.49C61.394 6.49 62.2013 6.728 62.7613 7.204C63.3306 7.68 63.6153 8.36133 63.6153 9.248C63.6153 9.84533 63.4706 10.4193 63.1813 10.97C62.9013 11.5207 62.458 12.1133 61.8513 12.748L59.6813 15.016H63.9933V16.5H57.4413ZM69.5673 16.5V6.63H73.8513C74.9339 6.63 75.7693 6.89133 76.3573 7.414C76.9453 7.92733 77.2393 8.65067 77.2393 9.584C77.2393 10.3213 77.0479 10.9327 76.6653 11.418C76.2826 11.894 75.7319 12.216 75.0133 12.384C75.4893 12.5333 75.8813 12.8927 76.1893 13.462L77.8413 16.5H75.8673L74.1593 13.35C73.9913 13.042 73.7906 12.832 73.5573 12.72C73.3333 12.608 73.0439 12.552 72.6893 12.552H71.3593V16.5H69.5673ZM71.3593 11.222H73.5433C74.8499 11.222 75.5033 10.69 75.5033 9.626C75.5033 8.57133 74.8499 8.044 73.5433 8.044H71.3593V11.222ZM82.1932 16.64C81.4185 16.64 80.7512 16.4953 80.1912 16.206C79.6312 15.9167 79.1972 15.506 78.8892 14.974C78.5905 14.442 78.4412 13.812 78.4412 13.084C78.4412 12.3747 78.5858 11.754 78.8752 11.222C79.1738 10.69 79.5798 10.2747 80.0932 9.976C80.6158 9.668 81.2085 9.514 81.8712 9.514C82.8418 9.514 83.6072 9.822 84.1672 10.438C84.7365 11.054 85.0212 11.894 85.0212 12.958V13.476H80.1212C80.2518 14.6987 80.9518 15.31 82.2212 15.31C82.6038 15.31 82.9865 15.254 83.3692 15.142C83.7518 15.0207 84.1018 14.834 84.4192 14.582L84.9092 15.758C84.5825 16.0287 84.1718 16.2433 83.6772 16.402C83.1825 16.5607 82.6878 16.64 82.1932 16.64ZM81.9412 10.704C81.4278 10.704 81.0125 10.8627 80.6952 11.18C80.3778 11.4973 80.1865 11.9267 80.1212 12.468H83.5652C83.5278 11.8987 83.3692 11.4647 83.0892 11.166C82.8185 10.858 82.4358 10.704 81.9412 10.704ZM88.3137 16.5L85.3457 9.654H87.2077L89.1117 14.442L91.0857 9.654H92.8357L89.8257 16.5H88.3137ZM93.5685 8.184V6.476H95.5285V8.184H93.5685ZM93.6805 16.5V9.654H95.4305V16.5H93.6805ZM100.623 16.64C99.8482 16.64 99.1809 16.4953 98.6209 16.206C98.0609 15.9167 97.6269 15.506 97.3189 14.974C97.0202 14.442 96.8709 13.812 96.8709 13.084C96.8709 12.3747 97.0155 11.754 97.3049 11.222C97.6035 10.69 98.0095 10.2747 98.5229 9.976C99.0455 9.668 99.6382 9.514 100.301 9.514C101.272 9.514 102.037 9.822 102.597 10.438C103.166 11.054 103.451 11.894 103.451 12.958V13.476H98.5509C98.6815 14.6987 99.3815 15.31 100.651 15.31C101.034 15.31 101.416 15.254 101.799 15.142C102.182 15.0207 102.532 14.834 102.849 14.582L103.339 15.758C103.012 16.0287 102.602 16.2433 102.107 16.402C101.612 16.5607 101.118 16.64 100.623 16.64ZM100.371 10.704C99.8575 10.704 99.4422 10.8627 99.1249 11.18C98.8075 11.4973 98.6162 11.9267 98.5509 12.468H101.995C101.958 11.8987 101.799 11.4647 101.519 11.166C101.248 10.858 100.866 10.704 100.371 10.704ZM106.617 16.5L103.915 9.654H105.707L107.457 14.47L109.221 9.654H110.453L112.217 14.498L113.967 9.654H115.661L112.973 16.5H111.447L109.781 12.09L108.143 16.5H106.617ZM119.032 16.64C118.454 16.64 117.912 16.57 117.408 16.43C116.904 16.29 116.484 16.0893 116.148 15.828L116.596 14.68C116.942 14.9133 117.329 15.0953 117.758 15.226C118.188 15.3473 118.617 15.408 119.046 15.408C119.494 15.408 119.826 15.3333 120.04 15.184C120.264 15.0253 120.376 14.82 120.376 14.568C120.376 14.176 120.087 13.924 119.508 13.812L118.108 13.546C116.923 13.322 116.33 12.706 116.33 11.698C116.33 11.25 116.452 10.8627 116.694 10.536C116.946 10.2093 117.292 9.95733 117.73 9.78C118.169 9.60267 118.673 9.514 119.242 9.514C119.728 9.514 120.194 9.584 120.642 9.724C121.09 9.85467 121.473 10.0553 121.79 10.326L121.314 11.474C121.044 11.25 120.717 11.0727 120.334 10.942C119.961 10.8113 119.602 10.746 119.256 10.746C118.799 10.746 118.458 10.8253 118.234 10.984C118.02 11.1427 117.912 11.3527 117.912 11.614C117.912 12.0247 118.178 12.2767 118.71 12.37L120.11 12.636C120.717 12.748 121.174 12.9533 121.482 13.252C121.8 13.5507 121.958 13.952 121.958 14.456C121.958 15.1373 121.692 15.674 121.16 16.066C120.628 16.4487 119.919 16.64 119.032 16.64Z" fill="#030212"/>
</svg>
