<svg width="192" height="49" viewBox="0 0 192 49" fill="none" xmlns="http://www.w3.org/2000/svg">
<path d="M24 1C36.9787 1 47.5 11.5213 47.5 24.5C47.5 37.4787 36.9787 48 24 48C11.0213 48 0.500004 37.4787 0.5 24.5C0.5 11.5213 11.0213 1 24 1Z" fill="#DA0B09" fill-opacity="0.1" stroke="#E32320"/>
<path fill-rule="evenodd" clip-rule="evenodd" d="M33.5534 17.4819C34.5171 17.7414 35.277 18.5012 35.5364 19.465C36.0184 21.2256 35.9999 24.8954 35.9999 24.8954C35.9999 24.8954 35.9999 28.5464 35.5366 30.3071C35.277 31.2708 34.5173 32.0308 33.5534 32.2901C31.7927 32.7536 24.7499 32.7536 24.7499 32.7536C24.7499 32.7536 17.7256 32.7536 15.9465 32.2718C14.9826 32.0122 14.2229 31.2523 13.9633 30.2886C13.5 28.5464 13.5 24.8768 13.5 24.8768C13.5 24.8768 13.5 21.2256 13.9633 19.465C14.2227 18.5013 15.0012 17.7229 15.9463 17.4635C17.7071 17 24.7498 17 24.7498 17C24.7498 17 31.7927 17 33.5534 17.4819ZM28.3631 24.8769L22.5065 28.2501V21.5038L28.3631 24.8769Z" fill="#E32320"/>
<path d="M96 1C108.979 1 119.5 11.5213 119.5 24.5C119.5 37.4787 108.979 48 96 48C83.0213 48 72.5 37.4787 72.5 24.5C72.5 11.5213 83.0213 1 96 1Z" fill="#DA0B09" fill-opacity="0.1" stroke="#E32320"/>
<path d="M100.792 24.4798H97.9199V35H93.5692V24.4798H91.5V20.7825H93.5692V18.39C93.5692 16.6791 94.3819 14 97.9587 14L101.181 14.0135V17.6023H98.8431C98.4596 17.6023 97.9202 17.7939 97.9202 18.6101V20.786H101.172L100.792 24.4798Z" fill="#E32320"/>
<path d="M168 1C180.979 1 191.5 11.5213 191.5 24.5C191.5 37.4787 180.979 48 168 48C155.021 48 144.5 37.4787 144.5 24.5C144.5 11.5213 155.021 1 168 1Z" fill="#DA0B09" fill-opacity="0.1" stroke="#E32320"/>
<path d="M178.443 20.1741C178.393 19.0583 178.213 18.2911 177.955 17.6264C177.688 16.9209 177.278 16.2892 176.74 15.764C176.215 15.2307 175.579 14.8163 174.882 14.5538C174.213 14.2953 173.45 14.1149 172.334 14.0657C171.21 14.0123 170.853 14 168.002 14C165.151 14 164.794 14.0123 163.674 14.0615C162.558 14.1107 161.791 14.2913 161.127 14.5497C160.421 14.8163 159.789 15.2265 159.264 15.764C158.731 16.2892 158.316 16.925 158.054 17.6224C157.795 18.2911 157.615 19.0541 157.566 20.1699C157.512 21.2941 157.5 21.6509 157.5 24.5021C157.5 27.3532 157.512 27.7101 157.562 28.8301C157.611 29.9459 157.791 30.713 158.05 31.3777C158.316 32.0833 158.731 32.715 159.264 33.2401C159.789 33.7735 160.425 34.1879 161.122 34.4503C161.791 34.7088 162.554 34.8893 163.67 34.9385C164.79 34.9878 165.147 35 167.998 35C170.849 35 171.206 34.9878 172.326 34.9385C173.442 34.8893 174.209 34.7088 174.874 34.4503C176.285 33.9047 177.401 32.7889 177.946 31.3777C178.205 30.709 178.385 29.9459 178.434 28.8301C178.484 27.7101 178.496 27.3532 178.496 24.5021C178.496 21.6509 178.492 21.2941 178.443 20.1741ZM176.552 28.748C176.506 29.7736 176.334 30.3275 176.19 30.6967C175.838 31.6115 175.112 32.3376 174.197 32.6905C173.827 32.8341 173.27 33.0063 172.248 33.0514C171.14 33.1007 170.808 33.1129 168.006 33.1129C165.204 33.1129 164.868 33.1007 163.764 33.0514C162.739 33.0063 162.185 32.8341 161.816 32.6905C161.36 32.5222 160.946 32.2556 160.61 31.9069C160.261 31.5663 159.994 31.1561 159.826 30.7008C159.682 30.3316 159.51 29.7736 159.465 28.7522C159.416 27.6446 159.404 27.3122 159.404 24.5103C159.404 21.7083 159.416 21.3719 159.465 20.2685C159.51 19.2429 159.682 18.689 159.826 18.3198C159.994 17.8644 160.261 17.4502 160.614 17.1136C160.954 16.7649 161.364 16.4983 161.82 16.3302C162.189 16.1866 162.747 16.0143 163.768 15.9691C164.876 15.9199 165.208 15.9076 168.01 15.9076C170.816 15.9076 171.149 15.9199 172.252 15.9691C173.278 16.0143 173.832 16.1866 174.201 16.3302C174.656 16.4983 175.071 16.7649 175.407 17.1136C175.756 17.4542 176.022 17.8644 176.19 18.3198C176.334 18.689 176.506 19.2469 176.552 20.2685C176.601 21.3761 176.613 21.7083 176.613 24.5103C176.613 27.3122 176.601 27.6404 176.552 28.748Z" fill="#E32320"/>
<path d="M168.001 19.1074C165.023 19.1074 162.606 21.5237 162.606 24.502C162.606 27.4804 165.023 29.8967 168.001 29.8967C170.979 29.8967 173.396 27.4804 173.396 24.502C173.396 21.5237 170.979 19.1074 168.001 19.1074ZM168.001 28.0014C166.069 28.0014 164.502 26.4343 164.502 24.502C164.502 22.5698 166.069 21.0027 168.001 21.0027C169.933 21.0027 171.5 22.5698 171.5 24.502C171.5 26.4343 169.933 28.0014 168.001 28.0014Z" fill="#E32320"/>
<path d="M174.869 18.8947C174.869 19.5901 174.305 20.154 173.609 20.154C172.914 20.154 172.35 19.5901 172.35 18.8947C172.35 18.199 172.914 17.6353 173.609 17.6353C174.305 17.6353 174.869 18.199 174.869 18.8947Z" fill="#E32320"/>
</svg>
